<svg width="260" height="182" viewBox="0 0 260 182" fill="none" xmlns="http://www.w3.org/2000/svg">
<path d="M9.72906 6.77313L5.39337 15.1438C5.08635 15.7365 5.43609 16.4579 6.09203 16.5849L8.68437 17.0868C9.22571 17.1916 9.74965 16.839 9.85586 16.2985L11.5992 7.42596C11.8221 6.2917 10.2607 5.74666 9.72906 6.77313Z" fill="url(#paint0_linear)"/>
<path d="M33.7955 6.77313L29.4598 15.1438C29.1528 15.7365 29.5025 16.4579 30.1584 16.5849L32.7508 17.0868C33.2921 17.1916 33.8161 16.839 33.9223 16.2985L35.6656 7.42596C35.8885 6.2917 34.3271 5.74666 33.7955 6.77313Z" fill="url(#paint1_linear)"/>
<path d="M57.8638 6.76922L53.5281 15.1398C53.2211 15.7326 53.5709 16.454 54.2268 16.581L56.8191 17.0829C57.3605 17.1877 57.8844 16.8351 57.9906 16.2946L59.734 7.42206C59.9568 6.2878 58.3955 5.74275 57.8638 6.76922Z" fill="url(#paint2_linear)"/>
<path d="M81.9322 6.77313L77.5965 15.1438C77.2895 15.7365 77.6392 16.4579 78.2952 16.5849L80.8875 17.0868C81.4288 17.1916 81.9528 16.839 82.059 16.2985L83.8023 7.42596C84.0252 6.2917 82.4639 5.74666 81.9322 6.77313Z" fill="url(#paint3_linear)"/>
<path d="M105.999 6.76922L101.663 15.1398C101.356 15.7326 101.706 16.454 102.362 16.581L104.954 17.0829C105.495 17.1877 106.019 16.8351 106.125 16.2946L107.869 7.42206C108.092 6.2878 106.53 5.74275 105.999 6.76922Z" fill="url(#paint4_linear)"/>
<path d="M130.065 6.77313L125.729 15.1438C125.422 15.7365 125.772 16.4579 126.428 16.5849L129.02 17.0868C129.562 17.1916 130.086 16.839 130.192 16.2985L131.935 7.42596C132.158 6.2917 130.597 5.74666 130.065 6.77313Z" fill="url(#paint5_linear)"/>
<path d="M154.131 6.77313L149.796 15.1438C149.489 15.7365 149.838 16.4579 150.494 16.5849L153.087 17.0868C153.628 17.1916 154.152 16.839 154.258 16.2985L156.002 7.42596C156.224 6.2917 154.663 5.74666 154.131 6.77313Z" fill="url(#paint6_linear)"/>
<path d="M178.202 6.76922L173.866 15.1398C173.559 15.7326 173.909 16.454 174.565 16.581L177.157 17.0829C177.698 17.1877 178.222 16.8351 178.329 16.2946L180.072 7.42206C180.295 6.2878 178.733 5.74275 178.202 6.76922Z" fill="url(#paint7_linear)"/>
<path d="M202.282 6.77313L197.946 15.1438C197.639 15.7365 197.989 16.4579 198.645 16.5849L201.237 17.0868C201.778 17.1916 202.302 16.839 202.409 16.2985L204.152 7.42596C204.375 6.2917 202.813 5.74666 202.282 6.77313Z" fill="url(#paint8_linear)"/>
<path d="M226.362 6.76922L222.026 15.1398C221.719 15.7326 222.069 16.454 222.725 16.581L225.317 17.0829C225.859 17.1877 226.382 16.8351 226.489 16.2946L228.232 7.42206C228.455 6.2878 226.894 5.74275 226.362 6.76922Z" fill="url(#paint9_linear)"/>
<path d="M250.44 6.77313L246.104 15.1438C245.797 15.7365 246.147 16.4579 246.803 16.5849L249.395 17.0868C249.937 17.1916 250.461 16.839 250.567 16.2985L252.31 7.42596C252.533 6.2917 250.972 5.74666 250.44 6.77313Z" fill="url(#paint10_linear)"/>
<path d="M9.72906 39.1442L5.39337 47.5148C5.08635 48.1076 5.43609 48.829 6.09203 48.956L8.68437 49.4579C9.22571 49.5627 9.74965 49.2101 9.85586 48.6696L11.5992 39.7971C11.8221 38.6628 10.2607 38.1178 9.72906 39.1442Z" fill="url(#paint11_linear)"/>
<path d="M33.7955 39.1481L29.4598 47.5188C29.1528 48.1115 29.5025 48.8329 30.1584 48.9599L32.7508 49.4618C33.2921 49.5666 33.8161 49.214 33.9223 48.6735L35.6656 39.801C35.8885 38.6667 34.3271 38.1217 33.7955 39.1481Z" fill="url(#paint12_linear)"/>
<path d="M57.8638 39.1442L53.5281 47.5148C53.2211 48.1076 53.5709 48.829 54.2268 48.956L56.8191 49.4579C57.3605 49.5627 57.8844 49.2101 57.9906 48.6696L59.734 39.7971C59.9568 38.6628 58.3955 38.1178 57.8638 39.1442Z" fill="url(#paint13_linear)"/>
<path d="M81.9322 39.1481L77.5965 47.5188C77.2895 48.1115 77.6392 48.8329 78.2952 48.9599L80.8875 49.4618C81.4288 49.5666 81.9528 49.214 82.059 48.6735L83.8023 39.801C84.0252 38.6667 82.4639 38.1217 81.9322 39.1481Z" fill="url(#paint14_linear)"/>
<path d="M105.999 39.1442L101.663 47.5148C101.356 48.1076 101.706 48.829 102.362 48.956L104.954 49.4579C105.495 49.5627 106.019 49.2101 106.125 48.6696L107.869 39.7971C108.092 38.6628 106.53 38.1178 105.999 39.1442Z" fill="url(#paint15_linear)"/>
<path d="M130.065 39.1481L125.729 47.5188C125.422 48.1115 125.772 48.8329 126.428 48.9599L129.02 49.4618C129.562 49.5666 130.086 49.214 130.192 48.6735L131.935 39.801C132.158 38.6667 130.597 38.1217 130.065 39.1481Z" fill="url(#paint16_linear)"/>
<path d="M154.131 39.1481L149.796 47.5188C149.489 48.1115 149.838 48.8329 150.494 48.9599L153.087 49.4618C153.628 49.5666 154.152 49.214 154.258 48.6735L156.002 39.801C156.224 38.6667 154.663 38.1217 154.131 39.1481Z" fill="url(#paint17_linear)"/>
<path d="M178.202 39.1442L173.866 47.5148C173.559 48.1076 173.909 48.829 174.565 48.956L177.157 49.4579C177.698 49.5627 178.222 49.2101 178.329 48.6696L180.072 39.7971C180.295 38.6628 178.733 38.1178 178.202 39.1442Z" fill="url(#paint18_linear)"/>
<path d="M202.282 39.1481L197.946 47.5188C197.639 48.1115 197.989 48.8329 198.645 48.9599L201.237 49.4618C201.778 49.5666 202.302 49.214 202.409 48.6735L204.152 39.801C204.375 38.6667 202.813 38.1217 202.282 39.1481Z" fill="url(#paint19_linear)"/>
<path d="M226.362 39.1442L222.026 47.5148C221.719 48.1076 222.069 48.829 222.725 48.956L225.317 49.4579C225.859 49.5627 226.382 49.2101 226.489 48.6696L228.232 39.7971C228.455 38.6628 226.894 38.1178 226.362 39.1442Z" fill="url(#paint20_linear)"/>
<path d="M250.44 39.1481L246.104 47.5188C245.797 48.1115 246.147 48.8329 246.803 48.9599L249.395 49.4618C249.937 49.5666 250.461 49.214 250.567 48.6735L252.31 39.801C252.533 38.6667 250.972 38.1217 250.44 39.1481Z" fill="url(#paint21_linear)"/>
<path d="M9.72906 71.5234L5.39337 79.894C5.08635 80.4867 5.43609 81.2082 6.09203 81.3351L8.68437 81.8371C9.22571 81.9419 9.74965 81.5893 9.85586 81.0487L11.5992 72.1762C11.8221 71.0419 10.2607 70.4969 9.72906 71.5234Z" fill="url(#paint22_linear)"/>
<path d="M33.7955 71.5234L29.4598 79.894C29.1528 80.4867 29.5025 81.2082 30.1584 81.3351L32.7508 81.8371C33.2921 81.9419 33.8161 81.5893 33.9223 81.0487L35.6656 72.1762C35.8885 71.0419 34.3271 70.4969 33.7955 71.5234Z" fill="url(#paint23_linear)"/>
<path d="M57.8638 71.5195L53.5281 79.8901C53.2211 80.4828 53.5709 81.2042 54.2268 81.3312L56.8191 81.8331C57.3605 81.938 57.8844 81.5854 57.9906 81.0448L59.734 72.1723C59.9568 71.038 58.3955 70.493 57.8638 71.5195Z" fill="url(#paint24_linear)"/>
<path d="M81.9322 71.5234L77.5965 79.894C77.2895 80.4867 77.6392 81.2082 78.2952 81.3351L80.8875 81.8371C81.4288 81.9419 81.9528 81.5893 82.059 81.0487L83.8023 72.1762C84.0252 71.0419 82.4639 70.4969 81.9322 71.5234Z" fill="url(#paint25_linear)"/>
<path d="M105.999 71.5195L101.663 79.8901C101.356 80.4828 101.706 81.2042 102.362 81.3312L104.954 81.8331C105.495 81.938 106.019 81.5854 106.125 81.0448L107.869 72.1723C108.092 71.038 106.53 70.493 105.999 71.5195Z" fill="url(#paint26_linear)"/>
<path d="M130.065 71.5234L125.729 79.894C125.422 80.4867 125.772 81.2082 126.428 81.3351L129.02 81.8371C129.562 81.9419 130.086 81.5893 130.192 81.0487L131.935 72.1762C132.158 71.0419 130.597 70.4969 130.065 71.5234Z" fill="url(#paint27_linear)"/>
<path d="M154.131 71.5234L149.796 79.894C149.489 80.4867 149.838 81.2082 150.494 81.3351L153.087 81.8371C153.628 81.9419 154.152 81.5893 154.258 81.0487L156.002 72.1762C156.224 71.0419 154.663 70.4969 154.131 71.5234Z" fill="url(#paint28_linear)"/>
<path d="M178.202 71.5195L173.866 79.8901C173.559 80.4828 173.909 81.2042 174.565 81.3312L177.157 81.8331C177.698 81.938 178.222 81.5854 178.329 81.0448L180.072 72.1723C180.295 71.038 178.733 70.493 178.202 71.5195Z" fill="url(#paint29_linear)"/>
<path d="M202.282 71.5234L197.946 79.894C197.639 80.4867 197.989 81.2082 198.645 81.3351L201.237 81.8371C201.778 81.9419 202.302 81.5893 202.409 81.0487L204.152 72.1762C204.375 71.0419 202.813 70.4969 202.282 71.5234Z" fill="url(#paint30_linear)"/>
<path d="M226.362 71.5195L222.026 79.8901C221.719 80.4828 222.069 81.2042 222.725 81.3312L225.317 81.8331C225.859 81.938 226.382 81.5854 226.489 81.0448L228.232 72.1723C228.455 71.038 226.894 70.493 226.362 71.5195Z" fill="url(#paint31_linear)"/>
<path d="M250.44 71.5234L246.104 79.894C245.797 80.4867 246.147 81.2082 246.803 81.3351L249.395 81.8371C249.937 81.9419 250.461 81.5893 250.567 81.0487L252.31 72.1762C252.533 71.0419 250.972 70.4969 250.44 71.5234Z" fill="url(#paint32_linear)"/>
<path d="M9.72906 103.894L5.39337 112.265C5.08635 112.858 5.43609 113.579 6.09203 113.706L8.68437 114.208C9.22571 114.313 9.74965 113.96 9.85586 113.42L11.5992 104.547C11.8221 103.413 10.2607 102.868 9.72906 103.894Z" fill="url(#paint33_linear)"/>
<path d="M33.7955 103.898L29.4598 112.269C29.1528 112.862 29.5025 113.583 30.1584 113.71L32.7508 114.212C33.2921 114.317 33.8161 113.964 33.9223 113.424L35.6656 104.551C35.8885 103.417 34.3271 102.872 33.7955 103.898Z" fill="url(#paint34_linear)"/>
<path d="M57.8638 103.894L53.5281 112.265C53.2211 112.858 53.5709 113.579 54.2268 113.706L56.8191 114.208C57.3605 114.313 57.8844 113.96 57.9906 113.42L59.734 104.547C59.9568 103.413 58.3955 102.868 57.8638 103.894Z" fill="url(#paint35_linear)"/>
<path d="M81.9322 103.898L77.5965 112.269C77.2895 112.862 77.6392 113.583 78.2952 113.71L80.8875 114.212C81.4288 114.317 81.9528 113.964 82.059 113.424L83.8023 104.551C84.0252 103.417 82.4639 102.872 81.9322 103.898Z" fill="url(#paint36_linear)"/>
<path d="M105.999 103.894L101.663 112.265C101.356 112.858 101.706 113.579 102.362 113.706L104.954 114.208C105.495 114.313 106.019 113.96 106.125 113.42L107.869 104.547C108.092 103.413 106.53 102.868 105.999 103.894Z" fill="url(#paint37_linear)"/>
<path d="M130.065 103.898L125.729 112.269C125.422 112.862 125.772 113.583 126.428 113.71L129.02 114.212C129.562 114.317 130.086 113.964 130.192 113.424L131.935 104.551C132.158 103.417 130.597 102.872 130.065 103.898Z" fill="url(#paint38_linear)"/>
<path d="M154.131 103.898L149.796 112.269C149.489 112.862 149.838 113.583 150.494 113.71L153.087 114.212C153.628 114.317 154.152 113.964 154.258 113.424L156.002 104.551C156.224 103.417 154.663 102.872 154.131 103.898Z" fill="url(#paint39_linear)"/>
<path d="M178.202 103.894L173.866 112.265C173.559 112.858 173.909 113.579 174.565 113.706L177.157 114.208C177.698 114.313 178.222 113.96 178.329 113.42L180.072 104.547C180.295 103.413 178.733 102.868 178.202 103.894Z" fill="url(#paint40_linear)"/>
<path d="M202.282 103.898L197.946 112.269C197.639 112.862 197.989 113.583 198.645 113.71L201.237 114.212C201.778 114.317 202.302 113.964 202.409 113.424L204.152 104.551C204.375 103.417 202.813 102.872 202.282 103.898Z" fill="url(#paint41_linear)"/>
<path d="M226.362 103.894L222.026 112.265C221.719 112.858 222.069 113.579 222.725 113.706L225.317 114.208C225.859 114.313 226.382 113.96 226.489 113.42L228.232 104.547C228.455 103.413 226.894 102.868 226.362 103.894Z" fill="url(#paint42_linear)"/>
<path d="M250.44 103.898L246.104 112.269C245.797 112.862 246.147 113.583 246.803 113.71L249.395 114.212C249.937 114.317 250.461 113.964 250.567 113.424L252.31 104.551C252.533 103.417 250.972 102.872 250.44 103.898Z" fill="url(#paint43_linear)"/>
<path d="M9.72906 136.274L5.39337 144.644C5.08635 145.237 5.43609 145.958 6.09203 146.085L8.68437 146.587C9.22571 146.692 9.74965 146.34 9.85586 145.799L11.5992 136.926C11.8221 135.792 10.2607 135.247 9.72906 136.274Z" fill="url(#paint44_linear)"/>
<path d="M33.7955 136.274L29.4598 144.644C29.1528 145.237 29.5025 145.958 30.1584 146.085L32.7508 146.587C33.2921 146.692 33.8161 146.34 33.9223 145.799L35.6656 136.926C35.8885 135.792 34.3271 135.247 33.7955 136.274Z" fill="url(#paint45_linear)"/>
<path d="M57.8638 136.27L53.5281 144.64C53.2211 145.233 53.5709 145.954 54.2268 146.081L56.8191 146.583C57.3605 146.688 57.8844 146.336 57.9906 145.795L59.734 136.923C59.9568 135.788 58.3955 135.243 57.8638 136.27Z" fill="url(#paint46_linear)"/>
<path d="M81.9322 136.274L77.5965 144.644C77.2895 145.237 77.6392 145.958 78.2952 146.085L80.8875 146.587C81.4288 146.692 81.9528 146.34 82.059 145.799L83.8023 136.926C84.0252 135.792 82.4639 135.247 81.9322 136.274Z" fill="url(#paint47_linear)"/>
<path d="M105.999 136.27L101.663 144.64C101.356 145.233 101.706 145.954 102.362 146.081L104.954 146.583C105.495 146.688 106.019 146.336 106.125 145.795L107.869 136.923C108.092 135.788 106.53 135.243 105.999 136.27Z" fill="url(#paint48_linear)"/>
<path d="M130.065 136.274L125.729 144.644C125.422 145.237 125.772 145.958 126.428 146.085L129.02 146.587C129.562 146.692 130.086 146.34 130.192 145.799L131.935 136.926C132.158 135.792 130.597 135.247 130.065 136.274Z" fill="url(#paint49_linear)"/>
<path d="M154.131 136.274L149.796 144.644C149.489 145.237 149.838 145.958 150.494 146.085L153.087 146.587C153.628 146.692 154.152 146.34 154.258 145.799L156.002 136.926C156.224 135.792 154.663 135.247 154.131 136.274Z" fill="url(#paint50_linear)"/>
<path d="M178.202 136.27L173.866 144.64C173.559 145.233 173.909 145.954 174.565 146.081L177.157 146.583C177.698 146.688 178.222 146.336 178.329 145.795L180.072 136.923C180.295 135.788 178.733 135.243 178.202 136.27Z" fill="url(#paint51_linear)"/>
<path d="M202.282 136.274L197.946 144.644C197.639 145.237 197.989 145.958 198.645 146.085L201.237 146.587C201.778 146.692 202.302 146.34 202.409 145.799L204.152 136.926C204.375 135.792 202.813 135.247 202.282 136.274Z" fill="url(#paint52_linear)"/>
<path d="M226.362 136.27L222.026 144.64C221.719 145.233 222.069 145.954 222.725 146.081L225.317 146.583C225.859 146.688 226.382 146.336 226.489 145.795L228.232 136.923C228.455 135.788 226.894 135.243 226.362 136.27Z" fill="url(#paint53_linear)"/>
<path d="M250.44 136.274L246.104 144.644C245.797 145.237 246.147 145.958 246.803 146.085L249.395 146.587C249.937 146.692 250.461 146.34 250.567 145.799L252.31 136.926C252.533 135.792 250.972 135.247 250.44 136.274Z" fill="url(#paint54_linear)"/>
<path d="M9.72906 168.645L5.39337 177.015C5.08635 177.608 5.43609 178.329 6.09203 178.456L8.68437 178.958C9.22571 179.063 9.74965 178.711 9.85586 178.17L11.5992 169.298C11.8221 168.163 10.2607 167.618 9.72906 168.645Z" fill="url(#paint55_linear)"/>
<path d="M33.7955 168.649L29.4598 177.019C29.1528 177.612 29.5025 178.333 30.1584 178.46L32.7508 178.962C33.2921 179.067 33.8161 178.715 33.9223 178.174L35.6656 169.301C35.8885 168.167 34.3271 167.622 33.7955 168.649Z" fill="url(#paint56_linear)"/>
<path d="M57.8638 168.645L53.5281 177.015C53.2211 177.608 53.5709 178.329 54.2268 178.456L56.8191 178.958C57.3605 179.063 57.8844 178.711 57.9906 178.17L59.734 169.298C59.9568 168.163 58.3955 167.618 57.8638 168.645Z" fill="url(#paint57_linear)"/>
<path d="M81.9322 168.649L77.5965 177.019C77.2895 177.612 77.6392 178.333 78.2952 178.46L80.8875 178.962C81.4288 179.067 81.9528 178.715 82.059 178.174L83.8023 169.301C84.0252 168.167 82.4639 167.622 81.9322 168.649Z" fill="url(#paint58_linear)"/>
<path d="M105.999 168.645L101.663 177.015C101.356 177.608 101.706 178.329 102.362 178.456L104.954 178.958C105.495 179.063 106.019 178.711 106.125 178.17L107.869 169.298C108.092 168.163 106.53 167.618 105.999 168.645Z" fill="url(#paint59_linear)"/>
<path d="M130.065 168.649L125.729 177.019C125.422 177.612 125.772 178.333 126.428 178.46L129.02 178.962C129.562 179.067 130.086 178.715 130.192 178.174L131.935 169.301C132.158 168.167 130.597 167.622 130.065 168.649Z" fill="url(#paint60_linear)"/>
<path d="M154.131 168.649L149.796 177.019C149.489 177.612 149.838 178.333 150.494 178.46L153.087 178.962C153.628 179.067 154.152 178.715 154.258 178.174L156.002 169.301C156.224 168.167 154.663 167.622 154.131 168.649Z" fill="url(#paint61_linear)"/>
<path d="M178.202 168.645L173.866 177.015C173.559 177.608 173.909 178.329 174.565 178.456L177.157 178.958C177.698 179.063 178.222 178.711 178.329 178.17L180.072 169.298C180.295 168.163 178.733 167.618 178.202 168.645Z" fill="url(#paint62_linear)"/>
<path d="M202.282 168.649L197.946 177.019C197.639 177.612 197.989 178.333 198.645 178.46L201.237 178.962C201.778 179.067 202.302 178.715 202.409 178.174L204.152 169.301C204.375 168.167 202.813 167.622 202.282 168.649Z" fill="url(#paint63_linear)"/>
<path d="M226.362 168.645L222.026 177.015C221.719 177.608 222.069 178.329 222.725 178.456L225.317 178.958C225.859 179.063 226.382 178.711 226.489 178.17L228.232 169.298C228.455 168.163 226.894 167.618 226.362 168.645Z" fill="url(#paint64_linear)"/>
<path d="M250.44 168.649L246.104 177.019C245.797 177.612 246.147 178.333 246.803 178.46L249.395 178.962C249.937 179.067 250.461 178.715 250.567 178.174L252.31 169.301C252.533 168.167 250.972 167.622 250.44 168.649Z" fill="url(#paint65_linear)"/>
<defs>
<linearGradient id="paint0_linear" x1="6.47446" y1="4.16119" x2="12.803" y2="15.5287" gradientUnits="userSpaceOnUse">
<stop offset="0.317708" stop-color="#FF7468"/>
<stop offset="0.447917" stop-color="#FE8E86" stop-opacity="0.6"/>
<stop offset="1" stop-color="white" stop-opacity="0"/>
</linearGradient>
<linearGradient id="paint1_linear" x1="30.5409" y1="4.16119" x2="36.8694" y2="15.5287" gradientUnits="userSpaceOnUse">
<stop offset="0.317708" stop-color="#FF7468"/>
<stop offset="0.447917" stop-color="#FE8E86" stop-opacity="0.6"/>
<stop offset="1" stop-color="white" stop-opacity="0"/>
</linearGradient>
<linearGradient id="paint2_linear" x1="54.6092" y1="4.15728" x2="60.9377" y2="15.5248" gradientUnits="userSpaceOnUse">
<stop offset="0.317708" stop-color="#FF7468"/>
<stop offset="0.447917" stop-color="#FE8E86" stop-opacity="0.6"/>
<stop offset="1" stop-color="white" stop-opacity="0"/>
</linearGradient>
<linearGradient id="paint3_linear" x1="78.6776" y1="4.16119" x2="85.0061" y2="15.5287" gradientUnits="userSpaceOnUse">
<stop offset="0.317708" stop-color="white"/>
<stop offset="0.447917" stop-color="white" stop-opacity="0.80916"/>
<stop offset="1" stop-color="white" stop-opacity="0"/>
</linearGradient>
<linearGradient id="paint4_linear" x1="102.744" y1="4.15728" x2="109.072" y2="15.5248" gradientUnits="userSpaceOnUse">
<stop offset="0.317708" stop-color="white"/>
<stop offset="0.447917" stop-color="white" stop-opacity="0.80916"/>
<stop offset="1" stop-color="white" stop-opacity="0"/>
</linearGradient>
<linearGradient id="paint5_linear" x1="126.81" y1="4.16119" x2="133.139" y2="15.5287" gradientUnits="userSpaceOnUse">
<stop offset="0.317708" stop-color="white"/>
<stop offset="0.447917" stop-color="white" stop-opacity="0.80916"/>
<stop offset="1" stop-color="white" stop-opacity="0"/>
</linearGradient>
<linearGradient id="paint6_linear" x1="150.877" y1="4.16119" x2="157.205" y2="15.5287" gradientUnits="userSpaceOnUse">
<stop offset="0.317708" stop-color="white"/>
<stop offset="0.447917" stop-color="white" stop-opacity="0.80916"/>
<stop offset="1" stop-color="white" stop-opacity="0"/>
</linearGradient>
<linearGradient id="paint7_linear" x1="174.947" y1="4.15728" x2="181.276" y2="15.5248" gradientUnits="userSpaceOnUse">
<stop offset="0.317708" stop-color="white"/>
<stop offset="0.447917" stop-color="white" stop-opacity="0.80916"/>
<stop offset="1" stop-color="white" stop-opacity="0"/>
</linearGradient>
<linearGradient id="paint8_linear" x1="199.027" y1="4.16119" x2="205.356" y2="15.5287" gradientUnits="userSpaceOnUse">
<stop offset="0.317708" stop-color="white"/>
<stop offset="0.447917" stop-color="white" stop-opacity="0.80916"/>
<stop offset="1" stop-color="white" stop-opacity="0"/>
</linearGradient>
<linearGradient id="paint9_linear" x1="223.107" y1="4.15728" x2="229.436" y2="15.5248" gradientUnits="userSpaceOnUse">
<stop offset="0.317708" stop-color="white"/>
<stop offset="0.447917" stop-color="white" stop-opacity="0.80916"/>
<stop offset="1" stop-color="white" stop-opacity="0"/>
</linearGradient>
<linearGradient id="paint10_linear" x1="247.185" y1="4.16119" x2="253.514" y2="15.5287" gradientUnits="userSpaceOnUse">
<stop offset="0.317708" stop-color="white"/>
<stop offset="0.447917" stop-color="white" stop-opacity="0.80916"/>
<stop offset="1" stop-color="white" stop-opacity="0"/>
</linearGradient>
<linearGradient id="paint11_linear" x1="6.47446" y1="36.5323" x2="12.803" y2="47.8998" gradientUnits="userSpaceOnUse">
<stop offset="0.317708" stop-color="#FF7468"/>
<stop offset="0.447917" stop-color="#FE8E86" stop-opacity="0.6"/>
<stop offset="1" stop-color="white" stop-opacity="0"/>
</linearGradient>
<linearGradient id="paint12_linear" x1="30.5409" y1="36.5362" x2="36.8694" y2="47.9037" gradientUnits="userSpaceOnUse">
<stop offset="0.317708" stop-color="#FF7468"/>
<stop offset="0.447917" stop-color="#FE8E86" stop-opacity="0.6"/>
<stop offset="1" stop-color="white" stop-opacity="0"/>
</linearGradient>
<linearGradient id="paint13_linear" x1="54.6092" y1="36.5323" x2="60.9377" y2="47.8998" gradientUnits="userSpaceOnUse">
<stop offset="0.317708" stop-color="#FF7468"/>
<stop offset="0.447917" stop-color="#FE8E86" stop-opacity="0.6"/>
<stop offset="1" stop-color="white" stop-opacity="0"/>
</linearGradient>
<linearGradient id="paint14_linear" x1="78.6776" y1="36.5362" x2="85.0061" y2="47.9037" gradientUnits="userSpaceOnUse">
<stop offset="0.317708" stop-color="white"/>
<stop offset="0.447917" stop-color="white" stop-opacity="0.80916"/>
<stop offset="1" stop-color="white" stop-opacity="0"/>
</linearGradient>
<linearGradient id="paint15_linear" x1="102.744" y1="36.5323" x2="109.072" y2="47.8998" gradientUnits="userSpaceOnUse">
<stop offset="0.317708" stop-color="white"/>
<stop offset="0.447917" stop-color="white" stop-opacity="0.80916"/>
<stop offset="1" stop-color="white" stop-opacity="0"/>
</linearGradient>
<linearGradient id="paint16_linear" x1="126.81" y1="36.5362" x2="133.139" y2="47.9037" gradientUnits="userSpaceOnUse">
<stop offset="0.317708" stop-color="white"/>
<stop offset="0.447917" stop-color="white" stop-opacity="0.80916"/>
<stop offset="1" stop-color="white" stop-opacity="0"/>
</linearGradient>
<linearGradient id="paint17_linear" x1="150.877" y1="36.5362" x2="157.205" y2="47.9037" gradientUnits="userSpaceOnUse">
<stop offset="0.317708" stop-color="white"/>
<stop offset="0.447917" stop-color="white" stop-opacity="0.80916"/>
<stop offset="1" stop-color="white" stop-opacity="0"/>
</linearGradient>
<linearGradient id="paint18_linear" x1="174.947" y1="36.5323" x2="181.276" y2="47.8998" gradientUnits="userSpaceOnUse">
<stop offset="0.317708" stop-color="white"/>
<stop offset="0.447917" stop-color="white" stop-opacity="0.80916"/>
<stop offset="1" stop-color="white" stop-opacity="0"/>
</linearGradient>
<linearGradient id="paint19_linear" x1="199.027" y1="36.5362" x2="205.356" y2="47.9037" gradientUnits="userSpaceOnUse">
<stop offset="0.317708" stop-color="white"/>
<stop offset="0.447917" stop-color="white" stop-opacity="0.80916"/>
<stop offset="1" stop-color="white" stop-opacity="0"/>
</linearGradient>
<linearGradient id="paint20_linear" x1="223.107" y1="36.5323" x2="229.436" y2="47.8998" gradientUnits="userSpaceOnUse">
<stop offset="0.317708" stop-color="white"/>
<stop offset="0.447917" stop-color="white" stop-opacity="0.80916"/>
<stop offset="1" stop-color="white" stop-opacity="0"/>
</linearGradient>
<linearGradient id="paint21_linear" x1="247.185" y1="36.5362" x2="253.514" y2="47.9037" gradientUnits="userSpaceOnUse">
<stop offset="0.317708" stop-color="white"/>
<stop offset="0.447917" stop-color="white" stop-opacity="0.80916"/>
<stop offset="1" stop-color="white" stop-opacity="0"/>
</linearGradient>
<linearGradient id="paint22_linear" x1="6.47446" y1="68.9114" x2="12.803" y2="80.279" gradientUnits="userSpaceOnUse">
<stop offset="0.317708" stop-color="#FF7468"/>
<stop offset="0.447917" stop-color="#FE8E86" stop-opacity="0.6"/>
<stop offset="1" stop-color="white" stop-opacity="0"/>
</linearGradient>
<linearGradient id="paint23_linear" x1="30.5409" y1="68.9114" x2="36.8694" y2="80.279" gradientUnits="userSpaceOnUse">
<stop offset="0.317708" stop-color="#FF7468"/>
<stop offset="0.447917" stop-color="#FE8E86" stop-opacity="0.6"/>
<stop offset="1" stop-color="white" stop-opacity="0"/>
</linearGradient>
<linearGradient id="paint24_linear" x1="54.6092" y1="68.9075" x2="60.9377" y2="80.2751" gradientUnits="userSpaceOnUse">
<stop offset="0.317708" stop-color="#FF7468"/>
<stop offset="0.447917" stop-color="#FE8E86" stop-opacity="0.6"/>
<stop offset="1" stop-color="white" stop-opacity="0"/>
</linearGradient>
<linearGradient id="paint25_linear" x1="78.6776" y1="68.9114" x2="85.0061" y2="80.279" gradientUnits="userSpaceOnUse">
<stop offset="0.317708" stop-color="white"/>
<stop offset="0.447917" stop-color="white" stop-opacity="0.80916"/>
<stop offset="1" stop-color="white" stop-opacity="0"/>
</linearGradient>
<linearGradient id="paint26_linear" x1="102.744" y1="68.9075" x2="109.072" y2="80.2751" gradientUnits="userSpaceOnUse">
<stop offset="0.317708" stop-color="white"/>
<stop offset="0.447917" stop-color="white" stop-opacity="0.80916"/>
<stop offset="1" stop-color="white" stop-opacity="0"/>
</linearGradient>
<linearGradient id="paint27_linear" x1="126.81" y1="68.9114" x2="133.139" y2="80.279" gradientUnits="userSpaceOnUse">
<stop offset="0.317708" stop-color="white"/>
<stop offset="0.447917" stop-color="white" stop-opacity="0.80916"/>
<stop offset="1" stop-color="white" stop-opacity="0"/>
</linearGradient>
<linearGradient id="paint28_linear" x1="150.877" y1="68.9114" x2="157.205" y2="80.279" gradientUnits="userSpaceOnUse">
<stop offset="0.317708" stop-color="white"/>
<stop offset="0.447917" stop-color="white" stop-opacity="0.80916"/>
<stop offset="1" stop-color="white" stop-opacity="0"/>
</linearGradient>
<linearGradient id="paint29_linear" x1="174.947" y1="68.9075" x2="181.276" y2="80.2751" gradientUnits="userSpaceOnUse">
<stop offset="0.317708" stop-color="white"/>
<stop offset="0.447917" stop-color="white" stop-opacity="0.80916"/>
<stop offset="1" stop-color="white" stop-opacity="0"/>
</linearGradient>
<linearGradient id="paint30_linear" x1="199.027" y1="68.9114" x2="205.356" y2="80.279" gradientUnits="userSpaceOnUse">
<stop offset="0.317708" stop-color="white"/>
<stop offset="0.447917" stop-color="white" stop-opacity="0.80916"/>
<stop offset="1" stop-color="white" stop-opacity="0"/>
</linearGradient>
<linearGradient id="paint31_linear" x1="223.107" y1="68.9075" x2="229.436" y2="80.2751" gradientUnits="userSpaceOnUse">
<stop offset="0.317708" stop-color="white"/>
<stop offset="0.447917" stop-color="white" stop-opacity="0.80916"/>
<stop offset="1" stop-color="white" stop-opacity="0"/>
</linearGradient>
<linearGradient id="paint32_linear" x1="247.185" y1="68.9114" x2="253.514" y2="80.279" gradientUnits="userSpaceOnUse">
<stop offset="0.317708" stop-color="white"/>
<stop offset="0.447917" stop-color="white" stop-opacity="0.80916"/>
<stop offset="1" stop-color="white" stop-opacity="0"/>
</linearGradient>
<linearGradient id="paint33_linear" x1="6.47446" y1="101.283" x2="12.803" y2="112.65" gradientUnits="userSpaceOnUse">
<stop offset="0.317708" stop-color="#FF7468"/>
<stop offset="0.447917" stop-color="#FE8E86" stop-opacity="0.6"/>
<stop offset="1" stop-color="white" stop-opacity="0"/>
</linearGradient>
<linearGradient id="paint34_linear" x1="30.5409" y1="101.286" x2="36.8694" y2="112.654" gradientUnits="userSpaceOnUse">
<stop offset="0.317708" stop-color="#FF7468"/>
<stop offset="0.447917" stop-color="#FE8E86" stop-opacity="0.6"/>
<stop offset="1" stop-color="white" stop-opacity="0"/>
</linearGradient>
<linearGradient id="paint35_linear" x1="54.6092" y1="101.283" x2="60.9377" y2="112.65" gradientUnits="userSpaceOnUse">
<stop offset="0.317708" stop-color="#FF7468"/>
<stop offset="0.447917" stop-color="#FE8E86" stop-opacity="0.6"/>
<stop offset="1" stop-color="white" stop-opacity="0"/>
</linearGradient>
<linearGradient id="paint36_linear" x1="78.6776" y1="101.286" x2="85.0061" y2="112.654" gradientUnits="userSpaceOnUse">
<stop offset="0.317708" stop-color="white"/>
<stop offset="0.447917" stop-color="white" stop-opacity="0.80916"/>
<stop offset="1" stop-color="white" stop-opacity="0"/>
</linearGradient>
<linearGradient id="paint37_linear" x1="102.744" y1="101.283" x2="109.072" y2="112.65" gradientUnits="userSpaceOnUse">
<stop offset="0.317708" stop-color="white"/>
<stop offset="0.447917" stop-color="white" stop-opacity="0.80916"/>
<stop offset="1" stop-color="white" stop-opacity="0"/>
</linearGradient>
<linearGradient id="paint38_linear" x1="126.81" y1="101.286" x2="133.139" y2="112.654" gradientUnits="userSpaceOnUse">
<stop offset="0.317708" stop-color="white"/>
<stop offset="0.447917" stop-color="white" stop-opacity="0.80916"/>
<stop offset="1" stop-color="white" stop-opacity="0"/>
</linearGradient>
<linearGradient id="paint39_linear" x1="150.877" y1="101.286" x2="157.205" y2="112.654" gradientUnits="userSpaceOnUse">
<stop offset="0.317708" stop-color="white"/>
<stop offset="0.447917" stop-color="white" stop-opacity="0.80916"/>
<stop offset="1" stop-color="white" stop-opacity="0"/>
</linearGradient>
<linearGradient id="paint40_linear" x1="174.947" y1="101.283" x2="181.276" y2="112.65" gradientUnits="userSpaceOnUse">
<stop offset="0.317708" stop-color="white"/>
<stop offset="0.447917" stop-color="white" stop-opacity="0.80916"/>
<stop offset="1" stop-color="white" stop-opacity="0"/>
</linearGradient>
<linearGradient id="paint41_linear" x1="199.027" y1="101.286" x2="205.356" y2="112.654" gradientUnits="userSpaceOnUse">
<stop offset="0.317708" stop-color="white"/>
<stop offset="0.447917" stop-color="white" stop-opacity="0.80916"/>
<stop offset="1" stop-color="white" stop-opacity="0"/>
</linearGradient>
<linearGradient id="paint42_linear" x1="223.107" y1="101.283" x2="229.436" y2="112.65" gradientUnits="userSpaceOnUse">
<stop offset="0.317708" stop-color="white"/>
<stop offset="0.447917" stop-color="white" stop-opacity="0.80916"/>
<stop offset="1" stop-color="white" stop-opacity="0"/>
</linearGradient>
<linearGradient id="paint43_linear" x1="247.185" y1="101.286" x2="253.514" y2="112.654" gradientUnits="userSpaceOnUse">
<stop offset="0.317708" stop-color="white"/>
<stop offset="0.447917" stop-color="white" stop-opacity="0.80916"/>
<stop offset="1" stop-color="white" stop-opacity="0"/>
</linearGradient>
<linearGradient id="paint44_linear" x1="6.47446" y1="133.662" x2="12.803" y2="145.029" gradientUnits="userSpaceOnUse">
<stop offset="0.317708" stop-color="#FF7468"/>
<stop offset="0.447917" stop-color="#FE8E86" stop-opacity="0.6"/>
<stop offset="1" stop-color="white" stop-opacity="0"/>
</linearGradient>
<linearGradient id="paint45_linear" x1="30.5409" y1="133.662" x2="36.8694" y2="145.029" gradientUnits="userSpaceOnUse">
<stop offset="0.317708" stop-color="#FF7468"/>
<stop offset="0.447917" stop-color="#FE8E86" stop-opacity="0.6"/>
<stop offset="1" stop-color="white" stop-opacity="0"/>
</linearGradient>
<linearGradient id="paint46_linear" x1="54.6092" y1="133.658" x2="60.9377" y2="145.025" gradientUnits="userSpaceOnUse">
<stop offset="0.317708" stop-color="#FF7468"/>
<stop offset="0.447917" stop-color="#FE8E86" stop-opacity="0.6"/>
<stop offset="1" stop-color="white" stop-opacity="0"/>
</linearGradient>
<linearGradient id="paint47_linear" x1="78.6776" y1="133.662" x2="85.0061" y2="145.029" gradientUnits="userSpaceOnUse">
<stop offset="0.317708" stop-color="#FF7468"/>
<stop offset="0.447917" stop-color="#FE8E86" stop-opacity="0.6"/>
<stop offset="1" stop-color="white" stop-opacity="0"/>
</linearGradient>
<linearGradient id="paint48_linear" x1="102.744" y1="133.658" x2="109.072" y2="145.025" gradientUnits="userSpaceOnUse">
<stop offset="0.317708" stop-color="#FF7468"/>
<stop offset="0.447917" stop-color="#FE8E86" stop-opacity="0.6"/>
<stop offset="1" stop-color="white" stop-opacity="0"/>
</linearGradient>
<linearGradient id="paint49_linear" x1="126.81" y1="133.662" x2="133.139" y2="145.029" gradientUnits="userSpaceOnUse">
<stop offset="0.317708" stop-color="#FF7468"/>
<stop offset="0.447917" stop-color="#FE8E86" stop-opacity="0.6"/>
<stop offset="1" stop-color="white" stop-opacity="0"/>
</linearGradient>
<linearGradient id="paint50_linear" x1="150.877" y1="133.662" x2="157.205" y2="145.029" gradientUnits="userSpaceOnUse">
<stop offset="0.317708" stop-color="#FF7468"/>
<stop offset="0.447917" stop-color="#FE8E86" stop-opacity="0.6"/>
<stop offset="1" stop-color="white" stop-opacity="0"/>
</linearGradient>
<linearGradient id="paint51_linear" x1="174.947" y1="133.658" x2="181.276" y2="145.025" gradientUnits="userSpaceOnUse">
<stop offset="0.317708" stop-color="#FF7468"/>
<stop offset="0.447917" stop-color="#FE8E86" stop-opacity="0.6"/>
<stop offset="1" stop-color="white" stop-opacity="0"/>
</linearGradient>
<linearGradient id="paint52_linear" x1="199.027" y1="133.662" x2="205.356" y2="145.029" gradientUnits="userSpaceOnUse">
<stop offset="0.317708" stop-color="#FF7468"/>
<stop offset="0.447917" stop-color="#FE8E86" stop-opacity="0.6"/>
<stop offset="1" stop-color="white" stop-opacity="0"/>
</linearGradient>
<linearGradient id="paint53_linear" x1="223.107" y1="133.658" x2="229.436" y2="145.025" gradientUnits="userSpaceOnUse">
<stop offset="0.317708" stop-color="#FF7468"/>
<stop offset="0.447917" stop-color="#FE8E86" stop-opacity="0.6"/>
<stop offset="1" stop-color="white" stop-opacity="0"/>
</linearGradient>
<linearGradient id="paint54_linear" x1="247.185" y1="133.662" x2="253.514" y2="145.029" gradientUnits="userSpaceOnUse">
<stop offset="0.317708" stop-color="#FF7468"/>
<stop offset="0.447917" stop-color="#FE8E86" stop-opacity="0.6"/>
<stop offset="1" stop-color="white" stop-opacity="0"/>
</linearGradient>
<linearGradient id="paint55_linear" x1="6.47446" y1="166.033" x2="12.803" y2="177.4" gradientUnits="userSpaceOnUse">
<stop offset="0.317708" stop-color="#FF7468"/>
<stop offset="0.447917" stop-color="#FE8E86" stop-opacity="0.6"/>
<stop offset="1" stop-color="white" stop-opacity="0"/>
</linearGradient>
<linearGradient id="paint56_linear" x1="30.5409" y1="166.037" x2="36.8694" y2="177.404" gradientUnits="userSpaceOnUse">
<stop offset="0.317708" stop-color="#FF7468"/>
<stop offset="0.447917" stop-color="#FE8E86" stop-opacity="0.6"/>
<stop offset="1" stop-color="white" stop-opacity="0"/>
</linearGradient>
<linearGradient id="paint57_linear" x1="54.6092" y1="166.033" x2="60.9377" y2="177.4" gradientUnits="userSpaceOnUse">
<stop offset="0.317708" stop-color="#FF7468"/>
<stop offset="0.447917" stop-color="#FE8E86" stop-opacity="0.6"/>
<stop offset="1" stop-color="white" stop-opacity="0"/>
</linearGradient>
<linearGradient id="paint58_linear" x1="78.6776" y1="166.037" x2="85.0061" y2="177.404" gradientUnits="userSpaceOnUse">
<stop offset="0.317708" stop-color="#FF7468"/>
<stop offset="0.447917" stop-color="#FE8E86" stop-opacity="0.6"/>
<stop offset="1" stop-color="white" stop-opacity="0"/>
</linearGradient>
<linearGradient id="paint59_linear" x1="102.744" y1="166.033" x2="109.072" y2="177.4" gradientUnits="userSpaceOnUse">
<stop offset="0.317708" stop-color="#FF7468"/>
<stop offset="0.447917" stop-color="#FE8E86" stop-opacity="0.6"/>
<stop offset="1" stop-color="white" stop-opacity="0"/>
</linearGradient>
<linearGradient id="paint60_linear" x1="126.81" y1="166.037" x2="133.139" y2="177.404" gradientUnits="userSpaceOnUse">
<stop offset="0.317708" stop-color="#FF7468"/>
<stop offset="0.447917" stop-color="#FE8E86" stop-opacity="0.6"/>
<stop offset="1" stop-color="white" stop-opacity="0"/>
</linearGradient>
<linearGradient id="paint61_linear" x1="150.877" y1="166.037" x2="157.205" y2="177.404" gradientUnits="userSpaceOnUse">
<stop offset="0.317708" stop-color="#FF7468"/>
<stop offset="0.447917" stop-color="#FE8E86" stop-opacity="0.6"/>
<stop offset="1" stop-color="white" stop-opacity="0"/>
</linearGradient>
<linearGradient id="paint62_linear" x1="174.947" y1="166.033" x2="181.276" y2="177.4" gradientUnits="userSpaceOnUse">
<stop offset="0.317708" stop-color="#FF7468"/>
<stop offset="0.447917" stop-color="#FE8E86" stop-opacity="0.6"/>
<stop offset="1" stop-color="white" stop-opacity="0"/>
</linearGradient>
<linearGradient id="paint63_linear" x1="199.027" y1="166.037" x2="205.356" y2="177.404" gradientUnits="userSpaceOnUse">
<stop offset="0.317708" stop-color="#FF7468"/>
<stop offset="0.447917" stop-color="#FE8E86" stop-opacity="0.6"/>
<stop offset="1" stop-color="white" stop-opacity="0"/>
</linearGradient>
<linearGradient id="paint64_linear" x1="223.107" y1="166.033" x2="229.436" y2="177.4" gradientUnits="userSpaceOnUse">
<stop offset="0.317708" stop-color="#FF7468"/>
<stop offset="0.447917" stop-color="#FE8E86" stop-opacity="0.6"/>
<stop offset="1" stop-color="white" stop-opacity="0"/>
</linearGradient>
<linearGradient id="paint65_linear" x1="247.185" y1="166.037" x2="253.514" y2="177.404" gradientUnits="userSpaceOnUse">
<stop offset="0.317708" stop-color="#FF7468"/>
<stop offset="0.447917" stop-color="#FE8E86" stop-opacity="0.6"/>
<stop offset="1" stop-color="white" stop-opacity="0"/>
</linearGradient>
</defs>
</svg>
